<svg width="450" height="604" viewBox="0 0 450 604" fill="none" xmlns="http://www.w3.org/2000/svg">
<path d="M373.83 31.1369C366.502 25.0738 355.385 21.7717 345.988 21.1048C279.376 16.3845 269.654 155.621 279.865 186.739C290.075 217.856 283.459 228.073 230.997 244.353C178.534 260.633 203.702 291.979 210.097 310.31C216.491 328.641 229.154 344.126 190.909 362.341C152.665 380.555 165.956 391.841 165.956 391.841C165.956 391.841 236.484 463.984 232.588 440.887C228.692 417.79 235.751 382.914 298.986 380.263C326.223 379.121 367.932 366.129 377.167 336.965C379.318 330.173 380.814 319.801 379.179 312.771C376.909 303.02 370.51 295.338 366.956 286.16C358.676 264.774 379.446 249.112 391.398 234.816C397.64 227.353 403.876 219.701 408.654 211.192C418.576 193.526 414.861 174.58 404.057 158.296C398.875 150.488 391.677 142.203 389.416 132.888C386.989 122.883 389.106 109.213 389.681 98.9205C390.133 90.8478 390.903 82.807 390.448 74.7137C389.608 59.6644 386.082 41.2741 373.83 31.1369Z" fill="url(#paint0_linear_11_99)"/>
<g opacity="0.8">
<g opacity="0.8">
<path opacity="0.8" d="M160.41 432.333C159.953 432.497 159.435 432.303 159.204 431.862C158.953 431.38 159.138 430.784 159.62 430.533C159.916 430.378 189.608 414.76 222.731 389.037C253.252 365.335 293.013 327.962 309.11 284.516C322.556 248.231 334.817 188.244 342.753 119.939C349.869 58.6894 350.992 13.3908 347.969 4.98234C347.784 4.4708 348.051 3.90673 348.563 3.72176C349.074 3.53678 349.638 3.80396 349.823 4.3155C353.361 14.1535 351.116 65.0403 344.712 120.168C336.761 188.623 324.459 248.774 310.96 285.201C294.696 329.093 254.647 366.753 223.914 390.615C190.654 416.438 160.832 432.122 160.535 432.278C160.492 432.298 160.451 432.317 160.41 432.333Z" fill="white"/>
</g>
<g opacity="0.8">
<path opacity="0.8" d="M342.645 131.813C342.136 131.995 341.618 131.854 341.43 131.344C341.184 130.671 316.351 63.8624 284.33 48.7788C283.837 48.5482 283.638 47.991 283.869 47.4977C284.101 47.0044 284.693 46.8103 285.184 47.0409C317.938 62.4693 342.255 127.876 343.276 130.659C343.463 131.171 343.162 131.628 342.65 131.81C342.648 131.813 342.645 131.813 342.645 131.813Z" fill="white"/>
</g>
<g opacity="0.8">
<path opacity="0.8" d="M330.534 209.289C330.155 209.426 329.712 209.319 329.44 208.988C329.095 208.568 329.155 207.947 329.575 207.602C329.758 207.451 348.041 192.454 370.599 179.869C401.079 162.865 424.438 158.117 440.026 165.761C440.515 166 440.716 166.589 440.476 167.078C440.237 167.567 439.647 167.768 439.159 167.528C403.292 149.944 331.546 208.527 330.826 209.12C330.737 209.196 330.637 209.253 330.534 209.289Z" fill="white"/>
</g>
<g opacity="0.8">
<path opacity="0.8" d="M250.937 367.655C250.836 367.692 250.731 367.71 250.62 367.712C250.076 367.721 249.628 367.288 249.619 366.742C249.615 366.456 249.108 337.792 243.109 307.588C237.607 279.896 226.248 245.21 203.375 237.217C202.861 237.037 202.59 236.475 202.77 235.963C202.948 235.45 203.512 235.178 204.024 235.358C223.097 242.022 236.897 266.204 245.045 307.232C251.076 337.607 251.583 366.424 251.588 366.712C251.597 367.146 251.323 367.516 250.937 367.655Z" fill="white"/>
</g>
<g opacity="0.8">
<path opacity="0.8" d="M291.639 321.344C291.239 321.488 290.778 321.36 290.513 321.002C290.189 320.563 290.283 319.947 290.719 319.625C293.891 317.279 368.713 262.273 397.891 267.525C398.428 267.621 398.781 268.135 398.686 268.669C398.59 269.206 398.078 269.562 397.541 269.464C369.19 264.36 292.66 320.639 291.89 321.207C291.813 321.269 291.726 321.312 291.639 321.344Z" fill="white"/>
</g>
</g>
<path d="M432.293 236.217C427.45 228.033 418.105 221.164 409.489 217.357C348.401 190.375 292.141 318.109 291.218 350.846C290.295 383.582 280.613 390.958 225.739 388.526C170.862 386.094 183.939 424.108 183.754 443.521C183.569 462.935 190.244 481.791 148.092 485.99C105.94 490.19 114.627 505.305 114.627 505.305C114.627 505.305 156.585 597.058 160.734 574.005C164.884 550.951 183.327 520.522 243.727 539.426C269.742 547.567 313.388 549.455 331.947 525.137C336.27 519.473 341.187 510.22 342.025 503.052C343.187 493.108 339.766 483.713 339.526 473.875C338.969 450.948 363.815 443.238 379.899 433.832C388.296 428.922 396.755 423.829 404.131 417.439C419.445 404.174 422.362 385.089 417.705 366.11C415.472 357.009 411.501 346.776 412.526 337.246C413.627 327.011 420.245 314.862 424.268 305.371C427.424 297.929 430.871 290.621 433.182 282.852C437.486 268.399 440.393 249.901 432.293 236.217Z" fill="url(#paint1_linear_11_99)"/>
<g opacity="0.8">
<g opacity="0.8">
<path opacity="0.8" d="M95.7065 541.528C95.2224 541.528 94.7999 541.17 94.7314 540.677C94.6583 540.138 95.0351 539.64 95.5741 539.567C95.9052 539.521 129.13 534.872 169.003 521.873C205.742 509.897 255.805 488.182 285.654 452.747C310.585 423.15 342.422 370.852 373 309.262C400.42 254.034 416.805 211.786 416.805 202.85C416.805 202.307 417.246 201.866 417.789 201.866C418.333 201.866 418.773 202.307 418.773 202.85C418.773 213.305 399.442 260.431 374.763 310.139C344.116 371.864 312.186 424.306 287.159 454.016C257.004 489.815 206.574 511.702 169.578 523.757C129.543 536.803 96.1724 541.471 95.839 541.517C95.7979 541.526 95.7522 541.528 95.7065 541.528Z" fill="white"/>
</g>
<g opacity="0.8">
<path opacity="0.8" d="M368.883 320.603C368.342 320.603 367.901 320.192 367.899 319.651C367.894 318.934 367.134 247.613 342.105 222.584C341.719 222.2 341.719 221.581 342.105 221.198C342.489 220.814 343.112 220.816 343.498 221.2C369.1 246.802 369.849 316.673 369.87 319.637C369.874 320.181 369.436 320.603 368.89 320.603C368.885 320.603 368.883 320.603 368.883 320.603Z" fill="white"/>
</g>
<g opacity="0.8">
<path opacity="0.8" d="M331.271 389.211C330.867 389.211 330.487 388.959 330.344 388.557C330.161 388.046 330.426 387.482 330.94 387.297C331.161 387.217 353.441 379.29 378.928 375.082C413.364 369.393 436.952 372.832 449.037 385.299C449.416 385.689 449.404 386.313 449.014 386.692C448.623 387.071 448 387.059 447.621 386.669C419.82 357.986 332.483 388.836 331.604 389.151C331.492 389.192 331.38 389.211 331.271 389.211Z" fill="white"/>
</g>
<g opacity="0.8">
<path opacity="0.8" d="M202.781 511.3C202.676 511.3 202.569 511.282 202.461 511.248C201.948 511.072 201.671 510.512 201.849 509.996C201.941 509.724 211.164 482.581 215.739 452.128C219.931 424.208 220.98 387.724 202.16 372.463C201.737 372.12 201.674 371.499 202.016 371.077C202.359 370.654 202.98 370.588 203.402 370.933C219.096 383.657 223.9 411.084 217.682 452.446C213.08 483.07 203.806 510.359 203.713 510.633C203.573 511.042 203.19 511.3 202.781 511.3Z" fill="white"/>
</g>
<g opacity="0.8">
<path opacity="0.8" d="M256.75 481.494C256.325 481.494 255.935 481.217 255.807 480.793C255.65 480.272 255.946 479.722 256.467 479.566C260.244 478.434 349.266 451.989 374.946 466.805C375.416 467.077 375.578 467.68 375.306 468.15C375.035 468.621 374.432 468.783 373.961 468.511C349.008 454.115 257.949 481.179 257.033 481.453C256.94 481.48 256.844 481.494 256.75 481.494Z" fill="white"/>
</g>
</g>
<path d="M227.521 6.10827L226.817 11.146C224.481 11.2534 222.184 11.5548 219.948 12.0572L218.044 7.35742C217.525 6.07629 216.057 5.46655 214.767 5.99865L206.689 9.32594C205.397 9.85803 204.766 11.3333 205.282 12.6167L207.196 17.3758C205.239 18.6227 203.389 20.034 201.667 21.596L197.612 18.4492C196.516 17.5996 194.926 17.8097 194.061 18.9196L188.635 25.8619C187.765 26.9741 187.949 28.568 189.046 29.4199L193.117 32.585C192.033 34.622 191.122 36.7732 190.386 39.0181L185.218 38.3398C183.83 38.1571 182.537 39.1414 182.332 40.539L181.032 49.2945C180.825 50.6967 181.784 51.9847 183.174 52.1674L188.358 52.8479C188.42 55.2115 188.678 57.5363 189.137 59.7994L184.273 61.8273C182.962 62.3731 182.318 63.8826 182.834 65.1957L186.075 73.4305C186.593 74.7505 188.08 75.3739 189.395 74.8236L194.262 72.7865C195.486 74.7779 196.881 76.6551 198.429 78.3998L195.186 82.6108C194.31 83.7504 194.497 85.3809 195.607 86.2533L202.558 91.7066C203.67 92.579 205.285 92.3598 206.159 91.2157L209.363 87.032C211.41 88.1213 213.574 89.0279 215.833 89.7518L215.105 94.9723C214.906 96.4019 215.881 97.7104 217.283 97.8931L226.059 99.044C227.464 99.229 228.758 98.2174 228.955 96.7878L229.663 91.6062C232.049 91.5034 234.395 91.1951 236.676 90.6813L238.601 95.4678C239.135 96.7969 240.631 97.4249 241.942 96.87L250.127 93.4011C251.435 92.8462 252.059 91.323 251.522 89.9985L249.597 85.2462C251.595 83.9559 253.477 82.4921 255.222 80.873L259.223 83.9833C260.341 84.8534 261.945 84.6342 262.803 83.4946L268.163 76.3879C269.019 75.2529 268.807 73.6338 267.69 72.7683L263.726 69.6945C264.806 67.6004 265.704 65.3875 266.416 63.0833L271.372 63.7341C272.762 63.9168 274.037 62.9234 274.217 61.5167L275.343 52.7383C275.523 51.3384 274.544 50.055 273.155 49.8723L268.213 49.2237C268.111 46.8305 267.809 44.4829 267.302 42.2015L271.885 40.2832C273.173 39.7443 273.783 38.2553 273.249 36.9582L269.901 28.8649C269.367 27.5724 267.891 26.9604 266.603 27.497L261.993 29.4199C260.737 27.4491 259.316 25.5902 257.738 23.8706L260.785 19.8947C261.632 18.7871 261.424 17.2046 260.323 16.3573L253.438 11.0661C252.337 10.2211 250.759 10.429 249.91 11.532L246.845 15.5124C244.813 14.4573 242.666 13.5804 240.426 12.8862L241.109 7.88724C241.296 6.51247 240.334 5.2496 238.957 5.06919L230.355 3.94107C228.985 3.76522 227.713 4.73122 227.521 6.10827ZM197.191 46.915C199.678 29.614 215.557 17.4855 232.673 19.7303C249.789 21.9751 261.81 37.7643 259.51 55.0882C257.197 72.5193 241.284 84.8854 223.981 82.6177C206.678 80.3477 194.691 64.321 197.191 46.915Z" fill="#D8DEE8"/>
<path d="M95.612 3.37666L94.525 11.1662C90.9145 11.3306 87.3611 11.7965 83.9037 12.573L80.9601 5.30636C80.1562 3.32414 77.8885 2.38327 75.8949 3.20539L63.4056 8.35048C61.4074 9.17488 60.4322 11.4517 61.2315 13.4408L64.1912 20.7987C61.1653 22.7261 58.3039 24.907 55.6434 27.3254L49.3634 22.4589C47.6712 21.1458 45.2116 21.4724 43.8734 23.1851L35.4833 33.9183C34.1382 35.6379 34.4237 38.102 36.1181 39.4197L42.4142 44.3158C40.738 47.465 39.3267 50.7923 38.1894 54.2612L30.1989 53.2129C28.0545 52.9321 26.0563 54.453 25.7343 56.6133L23.727 70.1531C23.405 72.3226 24.8894 74.3117 27.0406 74.5926L35.0539 75.643C35.1499 79.2969 35.5472 82.8937 36.2597 86.3922L28.7396 89.5277C26.7117 90.3726 25.7161 92.7043 26.5153 94.7367L31.5257 107.468C32.3273 109.507 34.6269 110.473 36.6594 109.622L44.184 106.472C46.0749 109.551 48.2329 112.453 50.6285 115.15L45.6159 121.661C44.2594 123.424 44.5494 125.945 46.2667 127.293L57.0159 135.724C58.7355 137.073 61.2315 136.733 62.5857 134.966L67.539 128.498C70.7019 130.184 74.052 131.586 77.5437 132.705L76.4156 140.778C76.1073 142.988 77.6145 145.011 79.7862 145.295L93.3558 147.074C95.5252 147.359 97.5303 145.795 97.8317 143.584L98.9279 135.573C102.618 135.416 106.245 134.938 109.771 134.144L112.746 141.545C113.573 143.6 115.886 144.571 117.912 143.712L130.568 138.35C132.589 137.494 133.555 135.137 132.724 133.086L129.746 125.737C132.836 123.744 135.745 121.478 138.444 118.975L144.628 123.785C146.357 125.13 148.835 124.79 150.164 123.031L158.451 112.045C159.774 110.291 159.447 107.786 157.721 106.447L151.591 101.697C153.263 98.4568 154.649 95.0359 155.75 91.4757L163.414 92.4805C165.565 92.7636 167.536 91.2267 167.814 89.0527L169.555 75.4786C169.833 73.3114 168.317 71.3292 166.172 71.0483L158.531 70.0458C158.374 66.3463 157.908 62.7153 157.122 59.1893L164.211 56.2228C166.204 55.3893 167.148 53.0874 166.316 51.0823L161.139 38.5678C160.313 36.5696 158.031 35.6242 156.042 36.4532L148.915 39.4242C146.974 36.3755 144.775 33.5027 142.338 30.8468L147.047 24.6992C148.358 22.9887 148.038 20.5406 146.332 19.2298L135.686 11.0498C133.984 9.7435 131.543 10.0655 130.23 11.7714L125.489 17.9259C122.345 16.2953 119.026 14.9388 115.564 13.8632L116.622 6.13304C116.912 4.00696 115.423 2.05671 113.297 1.7781L99.9943 0.0333845C97.8728 -0.245222 95.9089 1.25058 95.612 3.37666ZM48.7171 66.4719C52.5605 39.7211 77.1121 20.9677 103.575 24.4388C130.038 27.91 148.625 52.3223 145.071 79.1096C141.495 106.059 116.893 125.182 90.1404 121.672C63.385 118.165 44.8486 93.3825 48.7171 66.4719Z" fill="#D8DEE8"/>
<path d="M82.8848 78.8058L24.7063 562.38C23.834 569.63 28.8306 576.13 35.8323 576.824L278.156 603.428C293 604.351 301.127 596.767 302.045 589.057L363.126 74.9373C364.037 67.271 356.755 60.3264 341.847 60.3264L97.3198 65.4761C90.2382 65.5971 83.7526 71.594 82.8848 78.8058Z" fill="url(#paint2_linear_11_99)"/>
<path d="M71.9781 77.9748L13.4799 563.967C12.6029 571.254 17.6179 577.788 24.6424 578.487L275.863 603.5C283.739 604.283 290.958 598.585 291.878 590.837L353.302 74.0607C354.218 66.3533 348.433 60.16 340.47 60.2948L86.4633 64.5812C79.3611 64.6977 72.8504 70.7265 71.9781 77.9748Z" fill="url(#paint3_linear_11_99)"/>
<path d="M76.7461 104.78L22.5252 555.392C21.7054 562.199 26.4029 568.292 32.9775 568.932L269.243 591.898C276.564 592.611 283.273 587.292 284.132 580.078L340.897 102.697C341.751 95.5222 336.38 89.7149 328.983 89.7948L90.2928 92.3365C83.6496 92.405 77.5614 98.0069 76.7461 104.78Z" fill="#85A6DD"/>
<path d="M203.444 77.6389C203.133 80.2263 204.99 82.2976 207.593 82.2633C210.199 82.2314 212.565 80.103 212.875 77.5111C213.186 74.9191 211.322 72.8478 208.717 72.8866C206.111 72.9255 203.752 75.0538 203.444 77.6389Z" fill="url(#paint4_linear_11_99)"/>
<path d="M117.593 407.26C165.961 317.834 238.219 291.065 259.973 198.901C271.731 149.083 263.72 101.401 250.226 61.8157L340.474 60.2924C348.437 60.1577 354.222 66.3533 353.306 74.0583L291.882 590.834C290.962 598.585 283.743 604.283 275.867 603.497L78.383 583.835C76.9192 503.706 96.0311 447.121 117.593 407.26Z" fill="#777DE7"/>
<path d="M295.766 133.778L296.946 140.152L272.641 140.209L61.7226 140.709C56.2966 140.722 51.3068 145.208 50.5624 150.727L0.212261 487.231C-0.536779 492.801 8.13197 501.303 13.526 501.719L107.099 508.91V508.796L247.069 519.533C247.071 519.533 247.074 519.533 247.076 519.533L247.414 519.675C253.39 520.136 258.873 515.8 259.65 509.917C259.65 509.915 259.65 509.942 259.652 509.94L306.805 150.663C307.572 144.835 301.776 133.762 295.766 133.778Z" fill="url(#paint5_linear_11_99)"/>
<path d="M254.881 502.916C254.109 508.801 248.628 513.199 242.652 512.74L8.52216 494.763C3.13044 494.35 -0.621609 489.499 0.127431 483.93L45.8988 143.847C46.641 138.328 51.6308 133.842 57.0522 133.826L292.504 133.178C298.513 133.162 302.774 137.873 302.011 143.701L254.881 502.916Z" fill="url(#paint6_linear_11_99)"/>
<path d="M257.992 315.89C257.608 318.804 254.886 320.978 251.913 320.868L45.8512 313.348C43.1314 313.25 41.2176 311.01 41.5922 308.226L45.6434 278.198C46.0179 275.416 48.5002 273.535 51.2224 273.61L257.464 279.338C260.442 279.42 262.55 281.523 262.168 284.435L257.992 315.89Z" fill="white"/>
<path d="M250.012 376.903C249.629 379.823 246.904 382.315 243.931 382.167L38.0249 371.995C35.3074 371.86 33.4165 369.259 33.7911 366.473L37.8742 335.865C38.2487 333.082 40.7539 330.695 43.4737 330.805L249.505 339.115C252.479 339.236 254.582 341.926 254.198 344.842L250.012 376.903Z" fill="white"/>
<path opacity="0.1" d="M262.185 284.314C261.696 284.156 261.171 284.07 260.612 284.054L54.3652 278.328C51.6454 278.251 49.1608 280.137 48.7908 282.912L44.7328 312.94C44.7236 313.017 44.7168 313.09 44.7099 313.168C42.6181 312.579 41.273 310.596 41.5882 308.221L45.6462 278.194C46.0162 275.419 48.5008 273.53 51.2206 273.61L257.467 279.336C260.392 279.422 262.491 281.459 262.185 284.314Z" fill="url(#paint7_linear_11_99)"/>
<path opacity="0.1" d="M254.243 344.166C253.747 343.97 253.213 343.851 252.646 343.828L46.6193 335.516C43.8995 335.406 41.3898 337.797 41.0198 340.581L36.9298 371.191C36.907 371.387 36.891 371.577 36.891 371.773C34.7991 371.097 33.47 368.848 33.7852 366.473L37.8752 335.863C38.2452 333.079 40.7526 330.688 43.4747 330.798L249.502 339.11C252.254 339.229 254.25 341.524 254.243 344.166Z" fill="url(#paint8_linear_11_99)"/>
<path d="M195.251 426.356C195.858 421.75 192.602 417.507 187.973 417.239L81.383 411.119C76.9687 410.866 72.8924 414.583 72.2918 419.069L67.8934 452.223C67.2928 456.715 70.3552 461.013 74.7672 461.314L181.302 468.603C185.929 468.921 190.19 465.014 190.8 460.401L195.251 426.356Z" fill="url(#paint9_linear_11_99)"/>
<path d="M203.301 202.984C201.896 213.582 196.452 223.148 188.71 230.184C180.368 237.773 169.379 242.391 157.952 242.169C146.582 241.95 137.011 236.983 130.865 229.225C125.197 222.075 122.42 212.548 123.811 202.127C126.705 180.449 146.623 162.924 168.48 162.976C190.544 163.024 206.219 180.935 203.301 202.984Z" fill="url(#paint10_linear_11_99)"/>
<path d="M182.047 190.938C180.786 200.433 172.021 208.042 162.505 207.928C153.028 207.814 146.392 200.079 147.646 190.652C148.902 181.227 157.577 173.625 167.059 173.669C176.582 173.712 183.307 181.442 182.047 190.938Z" fill="white"/>
<path d="M188.712 230.185C180.37 237.773 169.381 242.391 157.954 242.169C146.583 241.95 137.012 236.983 130.867 229.226C137.901 219.426 149.502 212.909 161.822 213.069C174.209 213.229 184.193 220.093 188.712 230.185Z" fill="white"/>
<path opacity="0.4" d="M302.009 143.7L254.881 502.915C254.109 508.797 248.279 513.171 242.305 512.712L101.684 501.915C95.0046 495.075 89.5032 486.868 85.5776 477.018C83.6502 472.188 82.2389 466.977 81.3003 461.496C78.6901 446.328 79.7018 429.086 83.5086 412.162C86.4363 399.134 91.0265 386.272 96.9023 374.667C101.602 365.388 107.129 356.905 113.301 349.775C117.745 344.644 122.552 339.658 127.622 334.769C133.735 328.868 140.232 323.109 146.935 317.402C162.553 304.095 179.276 291.085 194.759 277.346C230.485 245.654 259.469 210.241 252.495 159.713C252.271 158.121 250.095 145.933 247.313 133.3L292.155 133.177C298.161 133.161 302.774 137.874 302.009 143.7Z" fill="white"/>
<defs>
<linearGradient id="paint0_linear_11_99" x1="237.364" y1="440.154" x2="404.16" y2="-10.3266" gradientUnits="userSpaceOnUse">
<stop offset="0.00359712" stop-color="#B3B5FD"/>
<stop offset="1" stop-color="#535CF9"/>
</linearGradient>
<linearGradient id="paint1_linear_11_99" x1="113.888" y1="395.681" x2="437.42" y2="395.681" gradientUnits="userSpaceOnUse">
<stop stop-color="#3035E9"/>
<stop offset="1" stop-color="#B3B5FD"/>
</linearGradient>
<linearGradient id="paint2_linear_11_99" x1="196.914" y1="319.41" x2="292.412" y2="329.827" gradientUnits="userSpaceOnUse">
<stop stop-color="#444B8C"/>
<stop offset="0.9964" stop-color="#26264F"/>
</linearGradient>
<linearGradient id="paint3_linear_11_99" x1="112.771" y1="78.6879" x2="348.91" y2="882.604" gradientUnits="userSpaceOnUse">
<stop stop-color="#444B8C"/>
<stop offset="0.9964" stop-color="#26264F"/>
</linearGradient>
<linearGradient id="paint4_linear_11_99" x1="201.258" y1="58.8866" x2="478.785" y2="810.524" gradientUnits="userSpaceOnUse">
<stop stop-color="#FFC444"/>
<stop offset="0.9964" stop-color="#F36F56"/>
</linearGradient>
<linearGradient id="paint5_linear_11_99" x1="0.16773" y1="326.744" x2="306.875" y2="326.744" gradientUnits="userSpaceOnUse">
<stop stop-color="#535CF9"/>
<stop offset="1" stop-color="#161B72"/>
</linearGradient>
<linearGradient id="paint6_linear_11_99" x1="186.635" y1="929.982" x2="150.064" y2="296.515" gradientUnits="userSpaceOnUse">
<stop offset="0.003597" stop-color="#7174B7"/>
<stop offset="1" stop-color="#535CF9"/>
</linearGradient>
<linearGradient id="paint7_linear_11_99" x1="41.5417" y1="293.39" x2="262.214" y2="293.39" gradientUnits="userSpaceOnUse">
<stop offset="0.003597" stop-color="#F36F56"/>
<stop offset="1" stop-color="#FFC444"/>
</linearGradient>
<linearGradient id="paint8_linear_11_99" x1="33.7411" y1="351.285" x2="254.242" y2="351.285" gradientUnits="userSpaceOnUse">
<stop offset="0.003597" stop-color="#535CF9"/>
<stop offset="1" stop-color="#BFC1E2"/>
</linearGradient>
<linearGradient id="paint9_linear_11_99" x1="142.123" y1="372.661" x2="92.8306" y2="685.244" gradientUnits="userSpaceOnUse">
<stop offset="0.003597" stop-color="#DADBE6"/>
<stop offset="1" stop-color="#535CF9"/>
</linearGradient>
<linearGradient id="paint10_linear_11_99" x1="158.337" y1="47.2044" x2="168.864" y2="360.678" gradientUnits="userSpaceOnUse">
<stop offset="0.003597" stop-color="#D1D3EF"/>
<stop offset="1" stop-color="#535CF9"/>
</linearGradient>
</defs>
</svg>
